<svg viewBox="0 0 1540 1360" xmlns="http://www.w3.org/2000/svg">
<defs><marker id="arrow" markerWidth="10" markerHeight="10" refX="8" refY="3" orient="auto" markerUnits="strokeWidth"><path d="M0,0 L8,3 L0,6 Z" fill="#334155"/></marker></defs>
<rect x="0" y="0" width="1540" height="1360" fill="#fff"/>
<rect x="40" y="25" width="760" height="470" rx="12" fill="none" stroke="#475569" stroke-width="2" stroke-dasharray="9 4"/>
<text x="54" y="50" font-family="Helvetica,Arial,sans-serif" font-size="15" font-weight="700" fill="#475569">C1: Issuer System</text>
<rect x="40" y="560" width="760" height="250" rx="12" fill="none" stroke="#9a3412" stroke-width="2" stroke-dasharray="9 4"/>
<text x="54" y="585" font-family="Helvetica,Arial,sans-serif" font-size="15" font-weight="700" fill="#9a3412">C2: Manufacturer System</text>
<rect x="430" y="880" width="1030" height="440" rx="12" fill="none" stroke="#475569" stroke-width="2" stroke-dasharray="9 4"/>
<text x="444" y="905" font-family="Helvetica,Arial,sans-serif" font-size="15" font-weight="700" fill="#475569">C3: Verifier System</text>
<rect x="300" y="55" width="230" height="50" rx="24" fill="#dbeafe" stroke="#1d4ed8" stroke-width="2"/>
<text x="415.0" y="85.0" text-anchor="middle" font-family="Helvetica,Arial,sans-serif" font-size="14.5" font-weight="600" fill="#111">E1: Issuing Authority</text>
<rect x="70" y="150" width="200" height="50" rx="6" fill="#fef9c3" stroke="#a16207" stroke-width="2"/>
<text x="170.0" y="180.0" text-anchor="middle" font-family="Helvetica,Arial,sans-serif" font-size="14.5" font-weight="600" fill="#111">S1: Issuer Key Store</text>
<rect x="300" y="150" width="230" height="50" rx="6" fill="#dcfce7" stroke="#15803d" stroke-width="2"/>
<text x="415.0" y="171.0" text-anchor="middle" font-family="Helvetica,Arial,sans-serif" font-size="14.5" font-weight="600" fill="#111">P1: Credential</text>
<text x="415.0" y="191.0" text-anchor="middle" font-family="Helvetica,Arial,sans-serif" font-size="14.5" font-weight="600" fill="#111">Creation &amp; Signing</text>
<rect x="580" y="150" width="200" height="50" rx="6" fill="#ffedd5" stroke="#c2410c" stroke-width="2"/>
<text x="680.0" y="171.0" text-anchor="middle" font-family="Helvetica,Arial,sans-serif" font-size="14.5" font-weight="600" fill="#111">O2: Optical</text>
<text x="680.0" y="191.0" text-anchor="middle" font-family="Helvetica,Arial,sans-serif" font-size="14.5" font-weight="600" fill="#111">Data Bytes (xi)</text>
<rect x="580" y="55" width="200" height="50" rx="6" fill="#dcfce7" stroke="#15803d" stroke-width="2"/>
<text x="680.0" y="76.0" text-anchor="middle" font-family="Helvetica,Arial,sans-serif" font-size="14.5" font-weight="600" fill="#111">P7: Status List</text>
<text x="680.0" y="96.0" text-anchor="middle" font-family="Helvetica,Arial,sans-serif" font-size="14.5" font-weight="600" fill="#111">Publication</text>
<rect x="300" y="250" width="230" height="50" rx="6" fill="#ffedd5" stroke="#c2410c" stroke-width="2"/>
<text x="415.0" y="271.0" text-anchor="middle" font-family="Helvetica,Arial,sans-serif" font-size="14.5" font-weight="600" fill="#111">O1:</text>
<text x="415.0" y="291.0" text-anchor="middle" font-family="Helvetica,Arial,sans-serif" font-size="14.5" font-weight="600" fill="#111">OpticalBarcodeCredential</text>
<rect x="580" y="250" width="200" height="50" rx="6" fill="#ffedd5" stroke="#c2410c" stroke-width="2"/>
<text x="680.0" y="271.0" text-anchor="middle" font-family="Helvetica,Arial,sans-serif" font-size="14.5" font-weight="600" fill="#111">O3:</text>
<text x="680.0" y="291.0" text-anchor="middle" font-family="Helvetica,Arial,sans-serif" font-size="14.5" font-weight="600" fill="#111">BitstringStatusListCredential</text>
<rect x="70" y="250" width="200" height="50" rx="6" fill="#ffedd5" stroke="#c2410c" stroke-width="2"/>
<text x="170.0" y="271.0" text-anchor="middle" font-family="Helvetica,Arial,sans-serif" font-size="14.5" font-weight="600" fill="#111">O4: Generic</text>
<text x="170.0" y="291.0" text-anchor="middle" font-family="Helvetica,Arial,sans-serif" font-size="14.5" font-weight="600" fill="#111">Verifiable Credential</text>
<rect x="300" y="350" width="230" height="50" rx="6" fill="#dcfce7" stroke="#15803d" stroke-width="2"/>
<text x="415.0" y="371.0" text-anchor="middle" font-family="Helvetica,Arial,sans-serif" font-size="14.5" font-weight="600" fill="#111">P2: CBOR-LD</text>
<text x="415.0" y="391.0" text-anchor="middle" font-family="Helvetica,Arial,sans-serif" font-size="14.5" font-weight="600" fill="#111">Compression &amp; Encoding</text>
<rect x="580" y="350" width="200" height="50" rx="6" fill="#fef9c3" stroke="#a16207" stroke-width="2"/>
<text x="680.0" y="380.0" text-anchor="middle" font-family="Helvetica,Arial,sans-serif" font-size="14.5" font-weight="600" fill="#111">S2: Status List Store</text>
<rect x="70" y="650" width="220" height="50" rx="24" fill="#dbeafe" stroke="#1d4ed8" stroke-width="2"/>
<text x="180.0" y="671.0" text-anchor="middle" font-family="Helvetica,Arial,sans-serif" font-size="14.5" font-weight="600" fill="#111">E4: Document</text>
<text x="180.0" y="691.0" text-anchor="middle" font-family="Helvetica,Arial,sans-serif" font-size="14.5" font-weight="600" fill="#111">Manufacturer</text>
<rect x="340" y="590" width="240" height="50" rx="6" fill="#dcfce7" stroke="#15803d" stroke-width="2"/>
<text x="460.0" y="611.0" text-anchor="middle" font-family="Helvetica,Arial,sans-serif" font-size="14.5" font-weight="600" fill="#111">P8: Barcode Rendering</text>
<text x="460.0" y="631.0" text-anchor="middle" font-family="Helvetica,Arial,sans-serif" font-size="14.5" font-weight="600" fill="#111">&amp; Personalization</text>
<rect x="340" y="690" width="240" height="50" rx="6" fill="#fef9c3" stroke="#a16207" stroke-width="2"/>
<text x="460.0" y="711.0" text-anchor="middle" font-family="Helvetica,Arial,sans-serif" font-size="14.5" font-weight="600" fill="#111">S4: Physical</text>
<text x="460.0" y="731.0" text-anchor="middle" font-family="Helvetica,Arial,sans-serif" font-size="14.5" font-weight="600" fill="#111">Document / Barcode</text>
<rect x="1180" y="590" width="260" height="50" rx="6" fill="#fef9c3" stroke="#a16207" stroke-width="2"/>
<text x="1310.0" y="611.0" text-anchor="middle" font-family="Helvetica,Arial,sans-serif" font-size="14.5" font-weight="600" fill="#111">External Verification</text>
<text x="1310.0" y="631.0" text-anchor="middle" font-family="Helvetica,Arial,sans-serif" font-size="14.5" font-weight="600" fill="#111">Method (did:web)</text>
<rect x="900" y="690" width="200" height="50" rx="24" fill="#dbeafe" stroke="#1d4ed8" stroke-width="2"/>
<text x="1000.0" y="720.0" text-anchor="middle" font-family="Helvetica,Arial,sans-serif" font-size="14.5" font-weight="600" fill="#111">E2: Holder</text>
<rect x="900" y="910" width="240" height="50" rx="6" fill="#dcfce7" stroke="#15803d" stroke-width="2"/>
<text x="1020.0" y="931.0" text-anchor="middle" font-family="Helvetica,Arial,sans-serif" font-size="14.5" font-weight="600" fill="#111">P3: Barcode</text>
<text x="1020.0" y="951.0" text-anchor="middle" font-family="Helvetica,Arial,sans-serif" font-size="14.5" font-weight="600" fill="#111">Scan &amp; Decode</text>
<rect x="540" y="910" width="220" height="50" rx="24" fill="#dbeafe" stroke="#1d4ed8" stroke-width="2"/>
<text x="650.0" y="940.0" text-anchor="middle" font-family="Helvetica,Arial,sans-serif" font-size="14.5" font-weight="600" fill="#111">E3: Verifier</text>
<rect x="900" y="1010" width="240" height="50" rx="6" fill="#dcfce7" stroke="#15803d" stroke-width="2"/>
<text x="1020.0" y="1040.0" text-anchor="middle" font-family="Helvetica,Arial,sans-serif" font-size="14.5" font-weight="600" fill="#111">P4: Proof Verification</text>
<rect x="540" y="1010" width="240" height="50" rx="6" fill="#fef9c3" stroke="#a16207" stroke-width="2"/>
<text x="660.0" y="1040.0" text-anchor="middle" font-family="Helvetica,Arial,sans-serif" font-size="14.5" font-weight="600" fill="#111">S3: Verifier Trust Store</text>
<rect x="620" y="1120" width="280" height="50" rx="6" fill="#dcfce7" stroke="#15803d" stroke-width="2"/>
<text x="760.0" y="1141.0" text-anchor="middle" font-family="Helvetica,Arial,sans-serif" font-size="14.5" font-weight="600" fill="#111">P5: Identity &amp;</text>
<text x="760.0" y="1161.0" text-anchor="middle" font-family="Helvetica,Arial,sans-serif" font-size="14.5" font-weight="600" fill="#111">Attribute Cross-Check</text>
<rect x="1000" y="1120" width="240" height="50" rx="6" fill="#dcfce7" stroke="#15803d" stroke-width="2"/>
<text x="1120.0" y="1150.0" text-anchor="middle" font-family="Helvetica,Arial,sans-serif" font-size="14.5" font-weight="600" fill="#111">P6: Status Check</text>
<path d="M 415 105 L 415 150" fill="none" stroke="#334155" stroke-width="1.8" marker-end="url(#arrow)"/>
<rect x="381.65" y="119" width="66.69999999999999" height="18" rx="3" fill="#fff" stroke="#cbd5e1" stroke-width="0.8" opacity="0.97"/>
<text x="415" y="132" text-anchor="middle" font-family="Helvetica,Arial,sans-serif" font-size="11" fill="#334155">Initiates</text>
<path d="M 680 105 L 680 150" fill="none" stroke="#334155" stroke-width="1.8" marker-end="url(#arrow)"/>
<rect x="646.65" y="119" width="66.69999999999999" height="18" rx="3" fill="#fff" stroke="#cbd5e1" stroke-width="0.8" opacity="0.97"/>
<text x="680" y="132" text-anchor="middle" font-family="Helvetica,Arial,sans-serif" font-size="11" fill="#334155">Initiates</text>
<path d="M 270 175 L 300 175" fill="none" stroke="#334155" stroke-width="1.8" marker-end="url(#arrow)"/>
<rect x="273.7" y="131" width="22.6" height="18" rx="3" fill="#fff" stroke="#cbd5e1" stroke-width="0.8" opacity="0.97"/>
<text x="285" y="144" text-anchor="middle" font-family="Helvetica,Arial,sans-serif" font-size="11" fill="#334155">F6</text>
<path d="M 580 175 L 530 175" fill="none" stroke="#334155" stroke-width="1.8" marker-end="url(#arrow)"/>
<rect x="499.6" y="129" width="110.8" height="18" rx="3" fill="#fff" stroke="#cbd5e1" stroke-width="0.8" opacity="0.97"/>
<text x="555" y="142" text-anchor="middle" font-family="Helvetica,Arial,sans-serif" font-size="11" fill="#334155">F7: Optical Data</text>
<path d="M 415 200 L 415 250" fill="none" stroke="#334155" stroke-width="1.8" marker-end="url(#arrow)"/>
<rect x="375.35" y="216" width="79.3" height="18" rx="3" fill="#fff" stroke="#cbd5e1" stroke-width="0.8" opacity="0.97"/>
<text x="415" y="229" text-anchor="middle" font-family="Helvetica,Arial,sans-serif" font-size="11" fill="#334155">F8: Produce</text>
<path d="M 300 190 L 285 190 L 285 235 L 170 235 L 170 250" fill="none" stroke="#334155" stroke-width="1.8" marker-end="url(#arrow)"/>
<rect x="273.7" y="211" width="22.6" height="18" rx="3" fill="#fff" stroke="#cbd5e1" stroke-width="0.8" opacity="0.97"/>
<text x="285" y="224" text-anchor="middle" font-family="Helvetica,Arial,sans-serif" font-size="11" fill="#334155">F8</text>
<path d="M 415 300 L 415 350" fill="none" stroke="#334155" stroke-width="1.8" marker-end="url(#arrow)"/>
<rect x="378.5" y="316" width="73.0" height="18" rx="3" fill="#fff" stroke="#cbd5e1" stroke-width="0.8" opacity="0.97"/>
<text x="415" y="329" text-anchor="middle" font-family="Helvetica,Arial,sans-serif" font-size="11" fill="#334155">F9: Encode</text>
<path d="M 170 300 L 170 375 L 300 375" fill="none" stroke="#334155" stroke-width="1.8" marker-end="url(#arrow)"/>
<rect x="178.5" y="327" width="73.0" height="18" rx="3" fill="#fff" stroke="#cbd5e1" stroke-width="0.8" opacity="0.97"/>
<text x="215" y="340" text-anchor="middle" font-family="Helvetica,Arial,sans-serif" font-size="11" fill="#334155">F9: Encode</text>
<path d="M 680 200 L 680 250" fill="none" stroke="#334155" stroke-width="1.8" marker-end="url(#arrow)"/>
<rect x="624.6" y="216" width="110.8" height="18" rx="3" fill="#fff" stroke="#cbd5e1" stroke-width="0.8" opacity="0.97"/>
<text x="680" y="229" text-anchor="middle" font-family="Helvetica,Arial,sans-serif" font-size="11" fill="#334155">F12: Status List</text>
<path d="M 680 300 L 680 350" fill="none" stroke="#334155" stroke-width="1.8" marker-end="url(#arrow)"/>
<rect x="640.35" y="316" width="79.3" height="18" rx="3" fill="#fff" stroke="#cbd5e1" stroke-width="0.8" opacity="0.97"/>
<text x="680" y="329" text-anchor="middle" font-family="Helvetica,Arial,sans-serif" font-size="11" fill="#334155">F5: Publish</text>
<path d="M 415 400 L 415 590" fill="none" stroke="#334155" stroke-width="1.8" marker-end="url(#arrow)"/>
<rect x="328.1" y="486" width="173.79999999999998" height="18" rx="3" fill="#fff" stroke="#cbd5e1" stroke-width="0.8" opacity="0.97"/>
<text x="415" y="499" text-anchor="middle" font-family="Helvetica,Arial,sans-serif" font-size="11" fill="#334155">F1: Render &amp; Print Barcode</text>
<path d="M 180 650 L 180 615 L 340 615" fill="none" stroke="#334155" stroke-width="1.8" marker-end="url(#arrow)"/>
<rect x="219.8" y="606" width="60.4" height="18" rx="3" fill="#fff" stroke="#cbd5e1" stroke-width="0.8" opacity="0.97"/>
<text x="250" y="619" text-anchor="middle" font-family="Helvetica,Arial,sans-serif" font-size="11" fill="#334155">Operates</text>
<path d="M 460 640 L 460 690" fill="none" stroke="#334155" stroke-width="1.8" marker-end="url(#arrow)"/>
<rect x="404.6" y="656" width="110.8" height="18" rx="3" fill="#fff" stroke="#cbd5e1" stroke-width="0.8" opacity="0.97"/>
<text x="460" y="669" text-anchor="middle" font-family="Helvetica,Arial,sans-serif" font-size="11" fill="#334155">F10: Personalize</text>
<path d="M 580 715 L 900 715" fill="none" stroke="#334155" stroke-width="1.8" marker-end="url(#arrow)"/>
<rect x="668.85" y="694" width="142.29999999999998" height="18" rx="3" fill="#fff" stroke="#cbd5e1" stroke-width="0.8" opacity="0.97"/>
<text x="740" y="707" text-anchor="middle" font-family="Helvetica,Arial,sans-serif" font-size="11" fill="#334155">F11: Transfer Custody</text>
<path d="M 1000 740 L 1000 910" fill="none" stroke="#334155" stroke-width="1.8" marker-end="url(#arrow)"/>
<rect x="932.0" y="816" width="136.0" height="18" rx="3" fill="#fff" stroke="#cbd5e1" stroke-width="0.8" opacity="0.97"/>
<text x="1000" y="829" text-anchor="middle" font-family="Helvetica,Arial,sans-serif" font-size="11" fill="#334155">F2: Present Document</text>
<path d="M 760 935 L 900 935" fill="none" stroke="#334155" stroke-width="1.8" marker-end="url(#arrow)"/>
<rect x="799.8" y="926" width="60.4" height="18" rx="3" fill="#fff" stroke="#cbd5e1" stroke-width="0.8" opacity="0.97"/>
<text x="830" y="939" text-anchor="middle" font-family="Helvetica,Arial,sans-serif" font-size="11" fill="#334155">Operates</text>
<path d="M 1020 960 L 1020 1010" fill="none" stroke="#334155" stroke-width="1.8" marker-end="url(#arrow)"/>
<rect x="942.55" y="976" width="154.9" height="18" rx="3" fill="#fff" stroke="#cbd5e1" stroke-width="0.8" opacity="0.97"/>
<text x="1020" y="989" text-anchor="middle" font-family="Helvetica,Arial,sans-serif" font-size="11" fill="#334155">F13: Decoded Credential</text>
<path d="M 780 1035 L 900 1035" fill="none" stroke="#334155" stroke-width="1.8" marker-end="url(#arrow)"/>
<rect x="781.45" y="1026" width="117.1" height="18" rx="3" fill="#fff" stroke="#cbd5e1" stroke-width="0.8" opacity="0.97"/>
<text x="840" y="1039" text-anchor="middle" font-family="Helvetica,Arial,sans-serif" font-size="11" fill="#334155">F3a: Local Lookup</text>
<path d="M 1310 640 L 1310 1035 L 1140 1035" fill="none" stroke="#334155" stroke-width="1.8" marker-end="url(#arrow)"/>
<rect x="1245.15" y="750" width="129.7" height="32" rx="3" fill="#fff" stroke="#cbd5e1" stroke-width="0.8" opacity="0.97"/>
<text x="1310" y="763" text-anchor="middle" font-family="Helvetica,Arial,sans-serif" font-size="11" fill="#334155">F3b: Resolve</text>
<text x="1310" y="777" text-anchor="middle" font-family="Helvetica,Arial,sans-serif" font-size="11" fill="#334155">Verification Method</text>
<path d="M 970 1060 L 970 1090 L 800 1090 L 800 1120" fill="none" stroke="#334155" stroke-width="1.8" marker-end="url(#arrow)"/>
<rect x="811.45" y="1068" width="117.1" height="32" rx="3" fill="#fff" stroke="#cbd5e1" stroke-width="0.8" opacity="0.97"/>
<text x="870" y="1081" text-anchor="middle" font-family="Helvetica,Arial,sans-serif" font-size="11" fill="#334155">F14: Verified</text>
<text x="870" y="1095" text-anchor="middle" font-family="Helvetica,Arial,sans-serif" font-size="11" fill="#334155">Claims &amp; Coverage</text>
<path d="M 1080 1060 L 1080 1090 L 1120 1090 L 1120 1120" fill="none" stroke="#334155" stroke-width="1.8" marker-end="url(#arrow)"/>
<rect x="1141.45" y="1075" width="117.1" height="32" rx="3" fill="#fff" stroke="#cbd5e1" stroke-width="0.8" opacity="0.97"/>
<text x="1200" y="1088" text-anchor="middle" font-family="Helvetica,Arial,sans-serif" font-size="11" fill="#334155">F15: Status Entry</text>
<text x="1200" y="1102" text-anchor="middle" font-family="Helvetica,Arial,sans-serif" font-size="11" fill="#334155">&amp; Issuer Context</text>
<path d="M 1240 1145 L 1480 1145 L 1480 375 L 780 375" fill="none" stroke="#334155" stroke-width="1.8" marker-end="url(#arrow)"/>
<rect x="1440.35" y="810" width="79.3" height="32" rx="3" fill="#fff" stroke="#cbd5e1" stroke-width="0.8" opacity="0.97"/>
<text x="1480" y="823" text-anchor="middle" font-family="Helvetica,Arial,sans-serif" font-size="11" fill="#334155">F4: Fetch</text>
<text x="1480" y="837" text-anchor="middle" font-family="Helvetica,Arial,sans-serif" font-size="11" fill="#334155">Status List</text>
</svg>
